<svg xmlns="http://www.w3.org/2000/svg" viewBox="0 0 240 240" role="img" aria-label="Kvinde · Storkøbenhavn · 18–34 år">
<defs><clipPath id="c-designet-kvinde-kbh-18-34"><rect width="240" height="240" rx="48"/></clipPath></defs>
<g clip-path="url(#c-designet-kvinde-kbh-18-34)"><rect width="240" height="240" fill="#d6ec85"/>
<circle cx="196" cy="44" r="70" fill="#e7fef9" opacity=".6"/>
<path d="M62 128c-6-58 22-92 58-92s64 34 58 92c-2 22 4 44 10 60H52c6-16 12-38 10-60z" fill="#a0632f"/>
<path d="M36 240c4-44 40-64 84-64s80 20 84 64z" fill="#184f44"/>
<path d="M101 177h38l-19 24z" fill="#e7fef9"/>
<rect x="105" y="148" width="30" height="34" rx="12" fill="#e0a982" style="filter:brightness(.93)"/>
<ellipse cx="120" cy="115" rx="40" ry="46" fill="#e0a982"/>
<path d="M78 110c2-40 26-60 46-60 26 0 44 22 40 52-14-20-38-30-60-30-10 12-18 24-26 38z" fill="#a0632f"/>
<circle cx="104" cy="116" r="4.5" fill="#00362d"/><circle cx="136" cy="116" r="4.5" fill="#00362d"/>
<path d="M107 136c8 7 18 7 26 0" stroke="#00362d" stroke-width="4" fill="none" stroke-linecap="round"/>
<circle cx="96" cy="130" r="7" fill="#e89a8a" opacity=".4"/><circle cx="144" cy="130" r="7" fill="#e89a8a" opacity=".4"/>
<path d="M74 116c0-34 20-58 46-58s46 24 46 58" stroke="#00362d" stroke-width="8" fill="none" stroke-linecap="round"/>
<rect x="64" y="106" width="18" height="30" rx="8" fill="#00362d"/><rect x="158" y="106" width="18" height="30" rx="8" fill="#00362d"/>
<path d="M166 134c0 18-14 26-30 26" stroke="#00362d" stroke-width="5" fill="none" stroke-linecap="round"/>
<circle cx="134" cy="160" r="6" fill="#00362d"/></g></svg>
